#tb 0: 1/25
0,          1,          1,        1,   518400, 0xd8b58a23
0,          3,          3,        1,   518400, 0xe53b4aba
0,          4,          4,        1,   518400, 0x6cbca47a
0,          5,          5,        1,   518400, 0xceb51253
0,          6,          6,        1,   518400, 0x60cb3cdd
0,          8,          8,        1,   518400, 0x7b633553
0,         10,         10,        1,   518400, 0x10c012c9
0,         12,         12,        1,   518400, 0xa340ee20
0,         13,         13,        1,   518400, 0x574c22c2
0,         14,         14,        1,   518400, 0xbcdb1bf7
0,         15,         15,        1,   518400, 0x57811e9a
0,         17,         17,        1,   518400, 0xdd4af748
0,         19,         19,        1,   518400, 0xb931a637
0,         21,         21,        1,   518400, 0xcef6ce95
0,         22,         22,        1,   518400, 0xd28c7085
0,         23,         23,        1,   518400, 0xae9daf53
0,         24,         24,        1,   518400, 0xca29d819
0,         26,         26,        1,   518400, 0x3c4bd7eb
0,         28,         28,        1,   518400, 0x912ee227
0,         30,         30,        1,   518400, 0xb67d0e27
0,         31,         31,        1,   518400, 0x8cf7309d
0,         32,         32,        1,   518400, 0x358ad344
0,         33,         33,        1,   518400, 0x4462c642
0,         35,         35,        1,   518400, 0x3bb43428
0,         37,         37,        1,   518400, 0x12d6f8ca
0,         39,         39,        1,   518400, 0x003f13aa
0,         40,         40,        1,   518400, 0x6cd8c432
0,         41,         41,        1,   518400, 0xee5ff01b
0,         43,         43,        1,   518400, 0xba0616ee
0,         44,         44,        1,   518400, 0x37fa7891
